<svg xmlns="http://www.w3.org/2000/svg" viewBox="0 0 129.15 107.49"><defs><style>.cls-1{fill:#fedb7c;}</style></defs><title>chaos_g</title><g id="Layer_2" data-name="Layer 2"><g id="Layer_1-2" data-name="Layer 1"><path class="cls-1" d="M73.42,47.16c4,1.12,8,2,11.91,3.45,6.3,2.3,9.65,1.62,13.77-3.38l1.34.6c-1.69,3.4-2.77,7.35-5.22,10.06-2.87,3.19-6.68,1.18-10-.39a64.53,64.53,0,0,0-8-3.42c-10.12-3.24-17.11,1.13-17.63,11.73-.25,5.26,1.15,10.65,2.18,15.91.62,3.15,2.2,6.11,3,9.25,2.12,8.88-2,15.15-11.08,16.17C33.9,109.36,19,100.7,8.88,84.55-3,65.63-2.94,45.68,8.88,26.75S38.51-.57,60.94,1.21a34.17,34.17,0,0,1,4.61,1.21c-5.81.3-10.43.26-15,.81C20.94,6.82,1,39,11.89,65.92c4.21,10.36,11.19,18.13,23,20,7.92,1.23,13-1.81,15.6-9.27,2-5.56,3.7-11.21,5.29-16.09L43.65,56.85c-4.95-1.49-9.66-2-12.86,3.41l-1.43-.78c1.59-3.25,2.59-7,4.92-9.61,2.85-3.17,6.62-1.26,10.06.11,4.16,1.67,8.35,3.6,12.71,4.31,6.12,1,10.23-1.22,11.56-7.22,1.23-5.57.89-11.66.3-17.42-.42-4-2.58-7.85-3.69-11.83C62.37,7.53,67.19.94,77.94.13a44,44,0,0,1,28.25,7.65c19.64,13,28,39.17,19.87,62.31s-31.2,38.6-54.47,36.62c-1.9-.16-3.77-.62-5.26-.21,8.53-2,17.54-2.76,25.49-6.09,25.22-10.55,36.31-40.6,23.93-63-4-7.18-9.58-12.61-17.71-15C88.39,19.5,81.73,23,78.7,32.45c-.87,2.74-1.63,5.52-2.61,8.23C75.18,43.2,74.05,45.65,73.42,47.16Z"/></g></g></svg>