<svg xmlns="http://www.w3.org/2000/svg" viewBox="0 0 1058.39 293.25"><defs><style>.cls-1{fill:#fedb7c;}</style></defs><title>logo_1</title><g id="Layer_2" data-name="Layer 2"><g id="Layer_1-2" data-name="Layer 1"><path class="cls-1" d="M229.83,66.29q2.82,0,9.29-5a88.51,88.51,0,0,1,12-8.31q5.67-3.06,14.18-3.06h12.36q9.3,0,20,6.08A55.35,55.35,0,0,1,315.3,72.77a41.69,41.69,0,0,1,6.87,23.28v13.79q0,9.5-7.51,22a72,72,0,0,1-19.23,21.26q-12,8.9-23.87,8.89H261L242,158.24c-2,.39-3.06,1.81-3.06,4.24v17.37q0,5.86,3.46,5.87h24.93a195.4,195.4,0,0,1,26.52,1.8q12.95,1.84,13,4.08a2.67,2.67,0,0,1-2.62,2.87l-25.72-2.87H227.22A123.51,123.51,0,0,0,211.59,193a127.56,127.56,0,0,1-13.74,1.43c-2.18,0-3.46-.13-3.86-.4s-.59-1.19-.59-3.07c0-1.23.8-2,2.41-2.44s4.84-.53,9.68-.79,7.84-.32,8.93-.45q6.47-.8,6.46-20V124.16Q220,113,218.27,95.25q-2-17.85-4.25-23.08-1-2.86-13.38-5.09-12.52-2.22-12.53-3.81c0-1.91,1.08-2.86,3.26-2.86q7.06,1.43,19.82,3.66Q223.75,66.29,229.83,66.29ZM259,60q-9.94,0-15.39,6.08-5.69,6.09-5.69,10.33v39.25q0,18,3.42,23.53,3.66,4.65,18.25,9.3,14.4,4.84,19.45,4.84,7.9,0,13.21-8.5A64.15,64.15,0,0,0,300.12,126a76.89,76.89,0,0,0,2.43-16.81q0-21.26-11.73-35.2T259,60Z"/><path class="cls-1" d="M356.63,52.94q.78,4.26.79,40.09,0,36-.4,85.42,10.14-5.67,12.11-5.68c1.35.3,2,.77,2,1.43q0,2.24-7.47,7.07a47.2,47.2,0,0,1-13.14,6.28q-7.51,2.28-11.37,3.07-.4-.41-.4-25.51,0-24.92.2-49.63,0-24.48.2-36.63a4,4,0,0,0,.19-1.24,8.72,8.72,0,0,0-2.22-5.24,66.59,66.59,0,0,0-6.48-6.87q-3.41-3.06-3.41-3.66c1.35-1,4.38-2.31,9.1-4.05s9.23-3.23,13.54-4.45a22.44,22.44,0,0,1,5.49-1C356.21,52.3,356.63,52.52,356.63,52.94Z"/><path class="cls-1" d="M376.45,129.66a7.34,7.34,0,0,1-.79-3.26c0-2.27,1.41-4.43,4.25-6.47q6.07-4.26,16.61-7.07a72.9,72.9,0,0,1,17.4-2.62q8.1,0,20.07,5.24Q445.9,121,445.9,128.23v39.1a23.52,23.52,0,0,0,1.44,5.44,9,9,0,0,0,4.25,5.29,52.73,52.73,0,0,0,8.9,3.21,14.36,14.36,0,0,1,3.65,1.44,2.72,2.72,0,0,1,.4,1.82c0,1.09-1.62,2.58-4.85,4.45q-4.89,3.08-7.31,3.07-9.3,0-13.94-2.23a29.9,29.9,0,0,1-8.7-5.48q-4-3.47-6.08-3.46-2.43,0-6.48,3.46a47.27,47.27,0,0,1-8.7,5.68q-4.69,2.43-13.39,2.42-11.13,0-15.77-3.06-4.9-2.82-4.9-9.49,0-8.5,8.51-15a56,56,0,0,1,16.21-8.7q5.88-2.22,12.36-4.7a44.37,44.37,0,0,0,9.91-5q3.63-2.61,3.63-6.08,0-9.49-6.67-14.75a22.49,22.49,0,0,0-14.19-5.27q-1.38,0-6,1.78-4.89,2-4.89,3.26c0,1.09,1,2,3.06,2.62,1.88.69,2.82,1.57,2.82,2.62q0,1.24-4.65,3.46a16.38,16.38,0,0,1-7.07,1.63,19.93,19.93,0,0,1-2.67-.19Q379.71,135,376.45,129.66ZM423.66,153a109.67,109.67,0,0,0-19.23,9.54q-9.35,5.83-9.34,10.08,0,7.52,6.08,9.54a12.22,12.22,0,0,0,3.85.6q4.46,0,9.94-3.66a20.87,20.87,0,0,0,8.9-13.15,36,36,0,0,0,.79-7.07A15.51,15.51,0,0,0,423.66,153Z"/><path class="cls-1" d="M494.3,125.61q0-.19,11.12-6.08,11.37-5.88,16-6.48a27.07,27.07,0,0,1,3.21-.19,18.12,18.12,0,0,1,14.58,7.07q7.13,8.49,7.12,28a130,130,0,0,1-1.83,18.2,88.85,88.85,0,0,0-1.63,12.16,3.12,3.12,0,0,0,.2,1.23,1.19,1.19,0,0,0,1,.6q1.38,0,4.45-2.43,4.44-3.25,7.86-5.48a4.26,4.26,0,0,1,2.27-.79c.92,0,1.52.67,1.78,2q-5.24,4.05-14.58,10.33-9.3,6.48-13.35,7.27a6,6,0,0,1-1.43.2c-1.19,0-1.93-.4-2.23-1.19a5.7,5.7,0,0,1-.2-1.63,13.85,13.85,0,0,1,.45-3.26,25.5,25.5,0,0,0,.59-4.65q.4-5.68.4-11.32a161.41,161.41,0,0,0-1.24-20.07q-1.77-15.18-7.66-22.24a10,10,0,0,0-7.71-3.66,17.52,17.52,0,0,0-8.5,2.62,32.15,32.15,0,0,0-6.08,4.05,7.54,7.54,0,0,0-2,4.45,66.19,66.19,0,0,0-.59,11.12q.19,7.71.19,18.44a54.18,54.18,0,0,1-3.85,19.68q-3.85,9.09-13.35,9.88V187.8q-.19-4.91,0-13.6v-6.67q0-13.15-.59-22.49-.84-11.52-4.06-15.38a33.85,33.85,0,0,0-5.48-5c-2-1.22-3-2.3-3-3.26q2.63-2,7.47-5,4.25-2.43,6.27-2.43h.4q3.66.6,8.11,5.84Q492.67,125.22,494.3,125.61Z"/><path class="cls-1" d="M564.54,152q1.44-22.5,11.57-31,9.89-8.49,26.1-8.5a20.69,20.69,0,0,1,8.9,1.63,40.56,40.56,0,0,1,7.51,5.24q4.07,3.47,5.44,3.46a21,21,0,0,0,3.07-1.43,9.33,9.33,0,0,1,4-1.43c1.35,0,2,.95,2,2.86q0,.4-10.14,6.28-4.05,2.22-15.77,7.86a201.41,201.41,0,0,0-18.63,10.33q-6.93,4.69-6.92,7.91a28.15,28.15,0,0,0,6.92,19.23q6.68,8.11,18.83,8.11,5.44,0,12.31-5.24t8.11-5.09a2,2,0,0,1,1.83,1,8.53,8.53,0,0,1,.84,1.83l-3.66,4q-2,2.22-6.67,6.92a98.87,98.87,0,0,1-11.77,4.84q-7.9,3-13.35,3a28.07,28.07,0,0,1-15-4.65q-7.51-4.44-12-14.14A44,44,0,0,1,564.35,156C564.35,154.65,564.41,153.31,564.54,152Zm30.6-32.43q-6.07,0-9.14,8.9a86.57,86.57,0,0,0-3.81,15.22q2.82-.63,13.55-6.08t10.72-6.27q0-1.63-5-6.68C598,121.23,595.93,119.53,595.14,119.53Z"/><path class="cls-1" d="M643.49,158.24q0-19,9.94-33.42,9.74-14.19,29-14.19,6.09,0,16.61,3.86,10.29,3.86,10.29,9.93c0,1.19-1.21,2.81-3.61,4.85-2.57,2.14-4.67,3.76-6.28,4.84,0-.26-1.55-1.88-4.65-4.84A81.4,81.4,0,0,0,684.59,121a17.64,17.64,0,0,0-9.91-3.46q-6.27,0-10.13,9.34a50.9,50.9,0,0,0-4.06,20.2q0,14.58,7.72,24.5,7.51,10.13,22.49,10.13,4.84,0,11.32-6.48t6.67-6.47a3.32,3.32,0,0,1,2.23,1.18,4.53,4.53,0,0,1,1,2c0,.39-1.82,2.36-5.48,5.89a62.07,62.07,0,0,1-12.76,9.71,30.26,30.26,0,0,1-15.17,4.26q-18.64,0-26.75-9.49Q643.5,172.77,643.49,158.24Z"/><path class="cls-1" d="M805.29,176.63c0,.69.26,1,.79,1q2.46,0,11-6.92c1.75,1.52,2.62,2.8,2.62,3.86V175q-.79,1.59-6.28,4.45a65.27,65.27,0,0,0-6.67,3.81q-2.67,1.83-5.88,3.85a36.3,36.3,0,0,1-6.08,3.27,5,5,0,0,1-1.83.39,2.14,2.14,0,0,1-2-1.23c-.26-.53-.4-2.28-.4-5.24v-17q0-21.06-3.21-33.81-3.46-12.56-17.45-13.59h-.39c-1.36,0-4.19,1.08-8.51,3.26q-7.07,3.66-7.91,4.84-.39.65-.39,9.35c0,4.44.06,10.38.2,17.79q.2,13,.19,20.66a72.53,72.53,0,0,1-.19,10.34q-2.43,1.38-7.27,3.65a67.34,67.34,0,0,1-10.73,4q-.44-1-.44-12.31t.44-38.51q.4-27.33.4-43.7,0-22.89-2-27.78a13.88,13.88,0,0,0-3.66-5,43.08,43.08,0,0,0-5.24-3.86c-1.91-1.09-3-1.89-3.26-2.42l-.2-.2c0-.26.55-.39,1.63-.39A103.33,103.33,0,0,0,733.61,57q8.1-2.28,12.16-3.07a9.55,9.55,0,0,1,1.83-.2A3.84,3.84,0,0,1,751,55.17q-.19,16.6-.2,41.27v5.69q1.23,0,1.24,18.83,3.21-2.42,8.89-6.27t14.78-4.45h.8q8.94,0,19.27,7.66,4,2.86,6.28,11a107.44,107.44,0,0,1,2.62,16.81q.6,8.7.6,19Z"/><path class="cls-1" d="M826.94,129.66a7.34,7.34,0,0,1-.79-3.26c0-2.27,1.41-4.43,4.25-6.47q6.08-4.26,16.61-7.07a72.76,72.76,0,0,1,17.4-2.62q8.1,0,20.07,5.24,11.91,5.47,11.91,12.75v39.1a23.93,23.93,0,0,0,1.43,5.44,9,9,0,0,0,4.26,5.29,52.68,52.68,0,0,0,8.89,3.21,14.34,14.34,0,0,1,3.66,1.44,2.72,2.72,0,0,1,.4,1.82c0,1.09-1.62,2.58-4.85,4.45q-4.89,3.08-7.31,3.07-9.3,0-13.94-2.23a29.63,29.63,0,0,1-8.7-5.48c-2.71-2.31-4.73-3.46-6.08-3.46q-2.43,0-6.48,3.46A47.27,47.27,0,0,1,859,190q-4.69,2.43-13.4,2.42-11.12,0-15.77-3.06-4.89-2.82-4.89-9.49,0-8.5,8.5-15a56.18,56.18,0,0,1,16.22-8.7q5.88-2.22,12.36-4.7a44.6,44.6,0,0,0,9.91-5q3.63-2.61,3.63-6.08,0-9.49-6.67-14.75a22.49,22.49,0,0,0-14.19-5.27q-1.38,0-6,1.78c-3.26,1.35-4.9,2.44-4.9,3.26,0,1.09,1,2,3.07,2.62,1.88.69,2.82,1.57,2.82,2.62q0,1.24-4.65,3.46a16.38,16.38,0,0,1-7.07,1.63,19.93,19.93,0,0,1-2.67-.19Q830.2,135,826.94,129.66ZM874.15,153a109.67,109.67,0,0,0-19.23,9.54q-9.34,5.83-9.35,10.08,0,7.52,6.08,9.54a12.33,12.33,0,0,0,3.86.6q4.46,0,9.94-3.66a20.85,20.85,0,0,0,8.89-13.15,35.28,35.28,0,0,0,.8-7.07A15.51,15.51,0,0,0,874.15,153Z"/><path class="cls-1" d="M920.71,142.81a26.9,26.9,0,0,1-2.22-10.13,16.45,16.45,0,0,1,2.82-9.29q5.24-7.92,16.61-12a90.86,90.86,0,0,1,24.47-5h.84q6.27,0,9.49,2.62a7.83,7.83,0,0,1,2.86,5.88v1.24q-.84,4-6.08,6.87a11.52,11.52,0,0,1-4.44,1.19,2.35,2.35,0,0,1-1-.2c-1.22-.26-2.24-1.27-3-3a52.92,52.92,0,0,0-2.85-5.29,8.8,8.8,0,0,0-5.24-3.21,15.21,15.21,0,0,0-4.25-.59,21.46,21.46,0,0,0-6.67,1.18q-6.08,2.24-7.51,9.54a15.85,15.85,0,0,0-.4,3.42q0,5.08,3.86,7.11,5,2.63,17.4,3.83t17.6,3.24q5.28,2,9.54,9.74a15.94,15.94,0,0,1,1.63,7.27q0,5.88-3.46,14-3.86,8.9-17.8,16a43.17,43.17,0,0,1-19.87,5.1,43.66,43.66,0,0,1-8.5-.84q-8.12-2-11.52-7.47a11.39,11.39,0,0,1-2.23-6.47,10.83,10.83,0,0,1,1-4.45q2.22-5.49,9.1-7.52a49.33,49.33,0,0,0,13,13.8q6.68,4.63,12.75,4.64h1.39q6.46-.65,9.74-8.3a14.8,14.8,0,0,0,1.18-5.69,16.28,16.28,0,0,0-3.21-9.29q-5.29-7.32-10.53-8.31-3.47-.84-13.15-1.23-9.93-.19-14.39-1.63Q922.95,148.3,920.71,142.81Z"/><path class="cls-1" d="M989.72,152q1.44-22.5,11.57-31,9.88-8.49,26.1-8.5a20.72,20.72,0,0,1,8.9,1.63,40.56,40.56,0,0,1,7.51,5.24c2.7,2.31,4.52,3.46,5.44,3.46a21.57,21.57,0,0,0,3.07-1.43,9.33,9.33,0,0,1,4-1.43c1.35,0,2,.95,2,2.86q0,.4-10.14,6.28-4.05,2.22-15.77,7.86a201.41,201.41,0,0,0-18.63,10.33q-6.93,4.69-6.92,7.91a28.15,28.15,0,0,0,6.92,19.23q6.66,8.11,18.83,8.11,5.44,0,12.31-5.24t8.11-5.09a2,2,0,0,1,1.83,1,8.53,8.53,0,0,1,.84,1.83l-3.66,4q-2,2.22-6.68,6.92a97.86,97.86,0,0,1-11.76,4.84c-5.28,2-9.72,3-13.35,3a28.13,28.13,0,0,1-15-4.65q-7.51-4.44-12-14.14A44,44,0,0,1,989.52,156C989.52,154.65,989.59,153.31,989.72,152Zm30.6-32.43q-6.08,0-9.14,8.9a86.57,86.57,0,0,0-3.81,15.22q2.82-.63,13.54-6.08t10.73-6.27q0-1.63-5-6.68T1020.32,119.53Z"/><path class="cls-1" d="M7.81,68.59c3.48,21.79,7,43.58,10.39,65,12.55.86,13.52-6.84,14.06-14.76,1.8-26.38,3.48-52.77,5.34-79.15.25-3.56,1.29-7.07,2-10.6L42,29c.78,6.53,1.76,13,2.29,19.57,1.82,22.66,3.34,45.34,5.32,68,.32,3.64-.91,9.18,6,9.16,7.13,0,7.29-5.16,7.59-10,1.9-31.21,3.58-62.43,5.58-93.63.48-7.38,1.91-14.7,2.9-22l3.7,0c1,7,2.52,14,3,21.09C80.35,52,82,83,83.8,113.89c.09,1.7-.26,3.86.64,5,2,2.52,4.63,4.53,7,6.75,2-2.14,5.44-4.13,5.66-6.43C99.34,95.44,101,71.63,103,47.85c.51-6.28,1.47-12.53,2.22-18.79l2.67,0c.67,4,1.67,8,2,12.09,2,26.93,4,53.87,5.48,80.84.45,8.32,4.56,11.45,13.64,12q5.22-32.53,10.47-65.26l1.48,0c.89,4.59,2.23,9.15,2.53,13.78q2,31.5,3.41,63c.09,2.09-1.08,5.38-2.67,6.22-36.59,19.31-50.79,53-58.57,90.62-2.87,13.9-4.91,28-7.54,41.93-.58,3-2.1,5.9-3.18,8.85l-3,0c-.92-3.49-1.93-7-2.74-10.49-5.52-24.05-10.07-48.37-16.72-72.1C45.3,185.43,28.68,166.86,6,153.93,1.36,151.29-.36,148.5.06,143.27,1.84,120.9,3.24,98.49,4.91,76.11,5.1,73.55,6,71.05,6.66,68.53Z"/></g></g></svg>