<svg xmlns="http://www.w3.org/2000/svg" viewBox="0 0 112.12 112.23"><title>null</title><g id="Layer_2" data-name="Layer 2"><g id="Layer_1-2" data-name="Layer 1"><path d="M90.15,15.11,99,6.26c1.48-1.48,3-2.94,4.44-4.44A6.07,6.07,0,0,1,107.14,0a4.93,4.93,0,0,1,4.74,3.28,5.31,5.31,0,0,1-1.62,5.6Q104,15.11,97.77,21.37a8.38,8.38,0,0,1-.69.57C106.81,34.05,111,47.74,109,63.06A51.47,51.47,0,0,1,92.88,94.7,51.64,51.64,0,0,1,58,109.17a51.94,51.94,0,0,1-35.68-12.3c-.23.2-.42.37-.6.55q-6.47,6.45-12.92,12.93a6.22,6.22,0,0,1-3.7,1.85A4.87,4.87,0,0,1,.25,109a5.34,5.34,0,0,1,1.63-5.66C6.21,99,10.51,94.7,14.82,90.4l.49-.52C6.14,78.39,2.1,65.31,3.56,50.73A51.63,51.63,0,0,1,20,17.37,53.25,53.25,0,0,1,90.15,15.11ZM29.32,90c15.72,13.15,42.39,13.85,59.3-4.89,16-17.73,13.25-42.41,1.53-56ZM83.08,22a43.21,43.21,0,0,0-58.67,4.84c-15.83,17.23-14,41.65-2.16,56Z"/></g></g></svg>