<svg xmlns="http://www.w3.org/2000/svg" viewBox="0 0 89.33 178.43"><defs><style>.cls-1{fill:#fedb7c;}</style></defs><title>pw_g</title><g id="Layer_2" data-name="Layer 2"><g id="Layer_1-2" data-name="Layer 1"><path class="cls-1" d="M4.75,41.73C6.87,55,9,68.25,11.07,81.29c7.64.53,8.23-4.16,8.56-9,1.09-16.05,2.12-32.11,3.25-48.15a55,55,0,0,1,1.19-6.45l1.5-.06c.47,4,1.07,7.92,1.39,11.9,1.11,13.79,2,27.59,3.24,41.36.19,2.22-.56,5.59,3.66,5.58s4.44-3.14,4.62-6.08c1.15-19,2.18-38,3.4-57C42.16,9,43,4.5,43.64,0l2.25,0c.62,4.28,1.53,8.54,1.8,12.83,1.2,18.82,2.21,37.64,3.3,56.46.06,1-.16,2.35.39,3a39.46,39.46,0,0,0,4.26,4.11c1.2-1.3,3.31-2.52,3.44-3.91,1.36-14.46,2.37-28.94,3.56-43.42.31-3.82.89-7.62,1.35-11.43l1.62,0c.41,2.46,1,4.89,1.2,7.36C68,41.45,69.24,57.84,70.14,74.25c.28,5.06,2.77,7,8.3,7.32,2.12-13.19,4.24-26.45,6.37-39.7l.9,0a67.87,67.87,0,0,1,1.54,8.39q1.23,19.17,2.07,38.35c.06,1.27-.65,3.27-1.62,3.78-22.26,11.76-30.9,32.22-35.64,55.14-1.74,8.46-3,17-4.58,25.51a34.74,34.74,0,0,1-1.94,5.39l-1.84,0c-.56-2.13-1.18-4.24-1.67-6.39-3.35-14.63-6.13-29.42-10.17-43.87-4.3-15.34-14.41-26.64-28.22-34.51C.83,92.05-.22,90.36,0,87.17,1.12,73.56,2,59.93,3,46.31A28.72,28.72,0,0,1,4.05,41.7Z"/></g></g></svg>