<svg xmlns="http://www.w3.org/2000/svg" viewBox="0 0 59.4 127.32"><defs><style>.cls-1{fill:#231f20;}</style></defs><title>qm</title><g id="Layer_2" data-name="Layer 2"><g id="Layer_1-2" data-name="Layer 1"><path class="cls-1" d="M59.4,28.19a22.92,22.92,0,0,1-2.08,10A30,30,0,0,1,52,46a65.89,65.89,0,0,1-6.9,6.34c-2.46,1.95-4.76,3.85-6.91,5.67a30,30,0,0,0-5.29,5.77,11.73,11.73,0,0,0-2.08,6.81A53.17,53.17,0,0,0,34.05,87.4a9.29,9.29,0,0,1,.57,2.27,3.68,3.68,0,0,1-1.32,2.74c-.89.82-2.65,1.61-5.3,2.37Q12.1,77,12.11,65.83a19.31,19.31,0,0,1,2.27-9.45A34.2,34.2,0,0,1,20,48.81a68.42,68.42,0,0,1,7.19-6.43q3.87-3,7.19-6.06a41.79,41.79,0,0,0,5.58-6.15,11.48,11.48,0,0,0,2.27-6.9q0-6.61-3.5-10.22a11.16,11.16,0,0,0-8.23-3.59,8.64,8.64,0,0,0-6.62,2.84,21.25,21.25,0,0,0-4.35,8.13q-.57,2.66-4,2.65a34.56,34.56,0,0,1-4.82-.38,38.41,38.41,0,0,1-5.11-1,14.46,14.46,0,0,1-4-1.7A2.9,2.9,0,0,1,0,17.59a12.19,12.19,0,0,1,1.89-6.35A18.77,18.77,0,0,1,7.38,5.6a30.06,30.06,0,0,1,8.79-4A42.35,42.35,0,0,1,28.19,0,32.11,32.11,0,0,1,41.81,2.71a31.09,31.09,0,0,1,9.74,6.81,28.89,28.89,0,0,1,5.87,9A25.75,25.75,0,0,1,59.4,28.19ZM16.08,113.51A13.28,13.28,0,0,1,20,103.86a12.81,12.81,0,0,1,9.55-4,12.62,12.62,0,0,1,9.37,4,13.31,13.31,0,0,1,3.87,9.65,13.53,13.53,0,0,1-3.87,9.83,12.63,12.63,0,0,1-9.37,4,12.82,12.82,0,0,1-9.55-4A13.5,13.5,0,0,1,16.08,113.51Z"/></g></g></svg>