<svg xmlns="http://www.w3.org/2000/svg" viewBox="0 0 130.15 108.49"><defs><style>.cls-1{fill:#231f20;stroke:#231f20;stroke-miterlimit:10;}</style></defs><title>chaos</title><g id="Layer_2" data-name="Layer 2"><g id="Layer_1-2" data-name="Layer 1"><path class="cls-1" d="M73.92,47.66c4,1.12,8,2,11.91,3.45,6.3,2.3,9.65,1.62,13.77-3.38l1.34.6c-1.69,3.4-2.77,7.35-5.22,10.06-2.87,3.19-6.68,1.18-10-.39a64.53,64.53,0,0,0-8-3.42c-10.12-3.24-17.11,1.13-17.63,11.73C59.87,71.57,61.27,77,62.3,82.22c.62,3.15,2.2,6.11,3,9.25,2.12,8.88-2,15.15-11.08,16.17C34.4,109.86,19.49,101.2,9.38,85.05c-11.86-18.92-11.82-38.87,0-57.8S39-.07,61.44,1.71a34.17,34.17,0,0,1,4.61,1.21c-5.81.3-10.43.26-15,.81C21.44,7.32,1.49,39.54,12.39,66.42c4.21,10.36,11.19,18.13,23,20,7.92,1.23,13-1.81,15.6-9.27,2-5.56,3.7-11.21,5.29-16.09L44.15,57.35c-4.95-1.49-9.66-2-12.86,3.41L29.86,60c1.59-3.25,2.59-7,4.92-9.61,2.85-3.17,6.62-1.26,10.06.11,4.16,1.67,8.35,3.6,12.71,4.31,6.12,1,10.23-1.22,11.56-7.22,1.23-5.57.89-11.66.3-17.42-.42-4-2.58-7.85-3.69-11.83C62.87,8,67.69,1.44,78.44.63a44,44,0,0,1,28.25,7.65c19.64,13,28,39.17,19.87,62.31s-31.2,38.6-54.47,36.62c-1.9-.16-3.77-.62-5.26-.21,8.53-2,17.54-2.76,25.49-6.09,25.22-10.55,36.31-40.6,23.93-63-4-7.18-9.58-12.61-17.71-15C88.89,20,82.23,23.45,79.2,33c-.87,2.74-1.63,5.52-2.61,8.23C75.68,43.7,74.55,46.15,73.92,47.66Z"/></g></g></svg>