<svg xmlns="http://www.w3.org/2000/svg" viewBox="0 0 126.94 113.67"><defs><style>.cls-1{fill:#fedb7c;}.cls-2{fill:#231f20;}</style></defs><title>dice</title><g id="Layer_2" data-name="Layer 2"><g id="Layer_1-2" data-name="Layer 1"><polyline class="cls-1" points="42.26 39.41 70.97 11.25 74.62 13.4 84.82 48.73 82.89 55.07 59.58 80.2 52.81 82.03"/><polyline class="cls-1" points="2 30.09 42.26 39.41 66.36 15.99 71.18 8.82 48.04 2.37 33.58 0.21 28.76 2.37 2.48 26.74 3.21 28.42"/><polyline class="cls-1" points="1.42 34.23 0.59 37.56 10.27 69.9 13.03 72.96 18.12 75.3 48.96 82.94 53.18 80.77 42.21 40.71 28.97 36.9 2 30.09 0.3 34.8 0.45 35.82"/><path d="M37,0c1.71.38,4.56,1,7.39,1.63,7,1.67,14.06,3.33,21.07,5.07,6.46,1.61,10.73,5.61,12.58,12,2.4,8.36,4.79,16.73,7,25.13a15.42,15.42,0,0,1-3.82,15.37C74.6,66.21,67.71,73,60.73,79.63c-4.18,4-9.39,5.09-15,3.77Q32.49,80.28,19.3,76.84A15.52,15.52,0,0,1,7.66,65.78C5.06,57,2.61,48.1.45,39.16A16,16,0,0,1,4.76,24.05c6.33-6.3,12.62-12.65,18.94-19A17.27,17.27,0,0,1,37,0ZM83.32,47.47c-.19-1-.42-2.85-.89-4.61-2-7.46-4-14.93-6.14-22.36A28.73,28.73,0,0,0,74,15a3,3,0,0,0-4.93-.71L55.68,27.56c-3.18,3.15-6.33,6.33-9.53,9.46a7.05,7.05,0,0,0-2,7.84c1.13,3.51,2.1,7.07,3.11,10.62,2,7.09,4.05,14.19,6.09,21.29a2.89,2.89,0,0,0,4.53,1.74A17.81,17.81,0,0,0,61.12,76q9.09-9,18.08-18.07C81.81,55.27,83.14,52,83.32,47.47ZM48,81.71A2.79,2.79,0,0,0,50.9,80.2a5.45,5.45,0,0,0,.25-3.14c-2.76-10.68-5.6-21.33-8.45-32a7,7,0,0,0-5.48-5.29c-10.68-2.75-21.34-5.55-32-8.32-2.34-.6-3.78.39-3.85,2.81a18,18,0,0,0,.44,5.08c2.32,8.5,4.68,17,7.22,25.43a13.78,13.78,0,0,0,10.31,9.84c7,1.8,14,3.48,21,5.21ZM38.71,38.34A8,8,0,0,0,45.17,36q9.39-9.52,18.76-19c1.48-1.51,3-3,4.44-4.53a1.71,1.71,0,0,0-.61-2.89,15.77,15.77,0,0,0-2.32-.77C56.86,6.57,48.27,4.42,39.7,2.22A14.89,14.89,0,0,0,24.6,6.29q-9.42,9.3-18.83,18.62a12.85,12.85,0,0,0-1.88,2.35A1.83,1.83,0,0,0,4.68,30,6.88,6.88,0,0,0,6,30.42q12.11,3,24.21,5.93C33.27,37.1,36.33,37.79,38.71,38.34Z"/><path class="cls-2" d="M37.07,53a1.77,1.77,0,0,1-.36,1.88,4.43,4.43,0,0,1-2,1,19.61,19.61,0,0,1-2.78.53c-1,.13-1.95.27-2.81.41a6.8,6.8,0,0,0-2.07.62,1,1,0,0,0-.54,1.22,11.79,11.79,0,0,0,2.48,4,2.62,2.62,0,0,1,.4.56c.06.21-.09.36-.44.44a9.11,9.11,0,0,1-2.26-.1c-5.53-3.76-8.54-6.48-9-8.1a1.58,1.58,0,0,1,.45-1.8,5.52,5.52,0,0,1,2.08-1,21.78,21.78,0,0,1,2.9-.54c1.06-.13,2-.27,2.92-.44a9.76,9.76,0,0,0,2.19-.65,1,1,0,0,0,.62-1.21,4.89,4.89,0,0,0-2.21-2.62,13.48,13.48,0,0,0-4-1.78,5.72,5.72,0,0,0-2.87-.21,2.29,2.29,0,0,0-1.5,1.24c-.06.33-.62.36-1.66.09-.64-.17-1.38-.4-2.23-.67s-1.66-.56-2.41-.85a19.41,19.41,0,0,1-1.93-.86c-.53-.28-.83-.52-.88-.71a1,1,0,0,1,.47-1.16,4.6,4.6,0,0,1,2.17-.56,19,19,0,0,1,3.79.21,43.22,43.22,0,0,1,5.43,1.15,42.57,42.57,0,0,1,6.43,2.28,34.43,34.43,0,0,1,4.88,2.66A18.23,18.23,0,0,1,35.6,50.7,5.86,5.86,0,0,1,37.07,53Zm-14.6,13.3c-.24-.82.15-1.37,1.16-1.66a8.31,8.31,0,0,1,4.09.22,14.7,14.7,0,0,1,4.49,1.91,5,5,0,0,1,2.33,2.5c.24.84-.15,1.4-1.16,1.68a8,8,0,0,1-4-.17,14.79,14.79,0,0,1-4.57-1.91A5.1,5.1,0,0,1,22.47,66.29Z"/><path class="cls-2" d="M74.64,29.62a5.69,5.69,0,0,1-.3,3,21.06,21.06,0,0,1-1.6,3.52q-1,1.85-2.27,3.74c-.83,1.27-1.59,2.48-2.3,3.62a24.94,24.94,0,0,0-1.7,3.11,4,4,0,0,0-.45,2.3,4.54,4.54,0,0,0,2,2.89c.2.14.3.25.32.34a1.8,1.8,0,0,1-.36,1.1,18.75,18.75,0,0,1-1.86,2.36c-4.51.8-7,.24-7.31-1.55a5.68,5.68,0,0,1,.4-3,25.74,25.74,0,0,1,1.71-3.66Q62,45.44,63.3,43.45t2.39-3.78c.72-1.2,1.32-2.28,1.78-3.26A3.92,3.92,0,0,0,68,34.06a1.38,1.38,0,0,0-1.8-1.26A7.27,7.27,0,0,0,63,34.59a10.47,10.47,0,0,0-2.33,2.79,11.61,11.61,0,0,0-1.23,3.34A3.48,3.48,0,0,1,58,42.64c-.52.44-1.13.93-1.82,1.46s-1.35,1-1.95,1.4a10.11,10.11,0,0,1-1.57.87c-.43.18-.67.16-.71-.06a4.05,4.05,0,0,1,.4-2.15A16.32,16.32,0,0,1,54.17,41a36,36,0,0,1,3.08-3.78,50.4,50.4,0,0,1,4.41-4.19,30.58,30.58,0,0,1,5.2-3.69,14.45,14.45,0,0,1,4-1.53,4.22,4.22,0,0,1,2.62.2A2.17,2.17,0,0,1,74.64,29.62ZM62.58,64.13a5.67,5.67,0,0,1,1-3.64,16.39,16.39,0,0,1,3.37-4.22A8.88,8.88,0,0,1,70.61,54c1.08-.27,1.72,0,1.9.92a5.71,5.71,0,0,1-1,3.64,16.94,16.94,0,0,1-3.3,4.19,9.19,9.19,0,0,1-3.75,2.39C63.4,65.41,62.76,65.07,62.58,64.13Z"/><path class="cls-2" d="M56.82,17.92a6.21,6.21,0,0,1-2.74,1.45,21.64,21.64,0,0,1-3.89.69c-1.43.12-2.9.21-4.42.24s-3,.08-4.3.12a28.14,28.14,0,0,0-3.55.33,4.15,4.15,0,0,0-2.19.89,4.65,4.65,0,0,0-1.41,3.22.72.72,0,0,1-.13.45,1.82,1.82,0,0,1-1.11.3,18,18,0,0,1-3-.26c-3-3.3-3.86-5.54-2.54-6.77a5.84,5.84,0,0,1,2.75-1.3,26.81,26.81,0,0,1,4-.59c1.46-.11,3-.18,4.58-.21s3.09-.08,4.5-.16,2.66-.2,3.75-.37a4.23,4.23,0,0,0,2.29-.9q1.15-1.11.12-2.13a7.06,7.06,0,0,0-3.3-1.56,11.06,11.06,0,0,0-3.67-.3,13,13,0,0,0-3.5.84,3.61,3.61,0,0,1-2.37,0c-.66-.17-1.41-.38-2.24-.63s-1.58-.52-2.25-.78a9.49,9.49,0,0,1-1.6-.74c-.39-.25-.51-.44-.35-.58a4.18,4.18,0,0,1,2-.83A18.32,18.32,0,0,1,35.92,8a42.31,42.31,0,0,1,4.92.35,53.26,53.26,0,0,1,6,1.14,30.11,30.11,0,0,1,6,2,12.82,12.82,0,0,1,3.46,2.29A3.81,3.81,0,0,1,57.56,16,2.27,2.27,0,0,1,56.82,17.92ZM21.09,27a5.84,5.84,0,0,1,3.57-1.12,16.44,16.44,0,0,1,5.29.52,8.35,8.35,0,0,1,3.8,1.84c.78.76.85,1.47.18,2.11a5.73,5.73,0,0,1-3.59,1.16,16,16,0,0,1-5.2-.51,8.72,8.72,0,0,1-3.91-1.88C20.45,28.35,20.41,27.64,21.09,27Z"/><polyline class="cls-1" points="82.52 69.3 94.58 30.94 98.82 31.12 124.46 57.48 125.73 63.98 117.01 97.13 111.9 101.92"/><polyline class="cls-1" points="42.62 80.04 82.52 69.3 92.75 37.29 93.63 28.69 70.18 33.9 56.4 38.81 53.16 42.98 41.47 76.86 42.89 77.99"/><polyline class="cls-1" points="44.05 83.96 44.89 87.3 68.66 111.26 72.53 112.66 78.13 112.33 108.93 104.55 111.63 100.64 83.09 70.47 69.62 73.34 42.62 80.04 43.34 84.99 43.94 85.82"/><path d="M59.34,37c1.68-.47,4.47-1.29,7.28-2,7-1.85,14-3.69,21-5.46,6.46-1.62,12.11-.1,16.76,4.7,6.06,6.24,12.1,12.5,18,18.85a15.41,15.41,0,0,1,3.88,15.36c-2.61,9.28-5.51,18.49-8.54,27.65-1.81,5.48-5.89,8.91-11.43,10.38q-13.17,3.5-26.43,6.68a15.56,15.56,0,0,1-15.47-4.28C58,102.31,51.64,95.63,45.52,88.77A16,16,0,0,1,42.2,73.41C44.82,64.87,47.38,56.3,50,47.75A17.27,17.27,0,0,1,59.34,37Zm63.2,20.06c-.66-.82-1.72-2.31-3-3.64q-7.92-8.48-16-16.84A29.12,29.12,0,0,0,99,32.76a3,3,0,0,0-4.69,1.69q-2.78,9-5.57,18.08c-1.31,4.27-2.59,8.56-4,12.83a7.06,7.06,0,0,0,1.91,7.87c4.14,4,8,8.31,12.12,12.28,3.78,3.61,7.32,7.46,10.83,11.33,1.88,2.08,3.63,2,5-.34a18.67,18.67,0,0,0,1.73-3.81c2.52-8.14,5-16.29,7.43-24.46C124.87,64.67,124.51,61.15,122.54,57.07Zm-15,46.82a2.79,2.79,0,0,0,1.81-2.68,5.45,5.45,0,0,0-1.26-2.89Q96.9,86.16,85.58,74.09A7.08,7.08,0,0,0,78.25,72c-10.71,2.61-21.44,5.16-32.15,7.75-2.35.56-3.16,2.12-2.07,4.28a17.76,17.76,0,0,0,2.77,4.28c6.05,6.41,12.14,12.78,18.35,19a13.78,13.78,0,0,0,13.73,3.83c7-1.71,14-3.53,21-5.31ZM78.89,70a7.94,7.94,0,0,0,4.58-5.13q3.81-12.81,7.58-25.63c.6-2,1.26-4,1.79-6.09a1.7,1.7,0,0,0-1.9-2.25,14.12,14.12,0,0,0-2.41.41c-8.6,2.11-17.18,4.26-25.78,6.35a14.92,14.92,0,0,0-11.4,10.7q-3.93,12.66-7.84,25.3a13.43,13.43,0,0,0-.57,3,1.78,1.78,0,0,0,1.88,2,7.47,7.47,0,0,0,1.48-.23l24.15-6.16C73.5,71.49,76.53,70.66,78.89,70Z"/><path class="cls-2" d="M84.34,83.72a1.79,1.79,0,0,1,.57,1.83,4.45,4.45,0,0,1-1.26,1.83,21,21,0,0,1-2.2,1.78c-.82.58-1.59,1.14-2.29,1.68a6.64,6.64,0,0,0-1.53,1.52,1,1,0,0,0,.1,1.33,11.92,11.92,0,0,0,4.07,2.36,2.27,2.27,0,0,1,.61.3c.16.17.1.36-.17.6a9.09,9.09,0,0,1-2,1c-6.65-.71-10.59-1.7-11.76-2.91a1.58,1.58,0,0,1-.44-1.8,5.3,5.3,0,0,1,1.37-1.85,21,21,0,0,1,2.3-1.83Q73,88.61,74,87.77a9.46,9.46,0,0,0,1.62-1.61.94.94,0,0,0,0-1.35,4.87,4.87,0,0,0-3.19-1.27,13.47,13.47,0,0,0-4.37.31A5.67,5.67,0,0,0,65.46,85a2.25,2.25,0,0,0-.74,1.79c.1.33-.37.62-1.42.86-.64.15-1.4.31-2.29.46s-1.72.29-2.52.39a17.2,17.2,0,0,1-2.1.15,1.82,1.82,0,0,1-1.12-.21,1,1,0,0,1-.13-1.25,4.49,4.49,0,0,1,1.65-1.51,19.42,19.42,0,0,1,3.44-1.61,44.48,44.48,0,0,1,5.34-1.53,39.86,39.86,0,0,1,6.74-1,35,35,0,0,1,5.56,0A17.86,17.86,0,0,1,82,82.4,6,6,0,0,1,84.34,83.72Zm-6.62,18.62c-.59-.62-.51-1.29.25-2a8.27,8.27,0,0,1,3.71-1.73,14.71,14.71,0,0,1,4.85-.43,5,5,0,0,1,3.24,1.11c.6.63.52,1.3-.23,2A8.26,8.26,0,0,1,85.93,103a15,15,0,0,1-4.92.46A5.13,5.13,0,0,1,77.72,102.34Z"/><path class="cls-2" d="M106.48,45.41a5.86,5.86,0,0,1,1.14,2.77,21.33,21.33,0,0,1,.24,3.86q0,2.12-.24,4.38c-.13,1.5-.24,2.93-.33,4.27a26.47,26.47,0,0,0,0,3.54,3.94,3.94,0,0,0,.69,2.25,4.53,4.53,0,0,0,3.12,1.6c.24,0,.39.08.44.15a1.8,1.8,0,0,1,.2,1.14,18.29,18.29,0,0,1-.53,3c-3.6,2.83-6,3.48-7.17,2.07a5.68,5.68,0,0,1-1.08-2.86,25.71,25.71,0,0,1-.21-4c0-1.46.12-3,.26-4.55s.25-3.07.33-4.47.09-2.63,0-3.71a4,4,0,0,0-.65-2.32,1.39,1.39,0,0,0-2.18-.27,7.35,7.35,0,0,0-2,3.11,10.33,10.33,0,0,0-.75,3.56,11.71,11.71,0,0,0,.49,3.53A3.39,3.39,0,0,1,98,64.72c-.25.64-.55,1.35-.91,2.15S96.33,68.38,96,69a9.57,9.57,0,0,1-1,1.5c-.3.36-.52.45-.65.28a3.93,3.93,0,0,1-.66-2.08,15.89,15.89,0,0,1,.09-3.59,36.79,36.79,0,0,1,.94-4.79,51.73,51.73,0,0,1,1.92-5.76,30.52,30.52,0,0,1,2.85-5.71,14,14,0,0,1,2.78-3.22,4.16,4.16,0,0,1,2.4-1A2.19,2.19,0,0,1,106.48,45.41Zm5.6,36.13a5.77,5.77,0,0,1-.84-3.68,16.59,16.59,0,0,1,1-5.3,8.88,8.88,0,0,1,2.18-3.74c.83-.75,1.53-.78,2.11-.09a5.75,5.75,0,0,1,.86,3.67,17.22,17.22,0,0,1-.94,5.26,9.18,9.18,0,0,1-2.18,3.87C113.41,82.28,112.69,82.28,112.08,81.54Z"/><path class="cls-2" d="M85.25,43.48a6.28,6.28,0,0,1-1.74,2.58,21.26,21.26,0,0,1-3.11,2.43c-1.19.79-2.45,1.55-3.78,2.3s-2.57,1.45-3.74,2.13a28.9,28.9,0,0,0-3,2,4.16,4.16,0,0,0-1.52,1.82,4.67,4.67,0,0,0,.27,3.5.75.75,0,0,1,.11.46,1.86,1.86,0,0,1-.85.79,18.25,18.25,0,0,1-2.73,1.16c-4.21-1.49-6-3.07-5.43-4.78a5.86,5.86,0,0,1,1.82-2.44A26.88,26.88,0,0,1,64.83,53q1.85-1.18,3.93-2.34t3.9-2.26a35.22,35.22,0,0,0,3.13-2.1,4.15,4.15,0,0,0,1.6-1.87c.34-1,0-1.66-.9-1.93a7.16,7.16,0,0,0-3.65.17,11.28,11.28,0,0,0-3.37,1.46,12.91,12.91,0,0,0-2.69,2.4,3.58,3.58,0,0,1-2.1,1.09c-.66.17-1.42.34-2.27.5s-1.64.29-2.36.38a10.83,10.83,0,0,1-1.76.1c-.46,0-.65-.15-.58-.35a4.2,4.2,0,0,1,1.39-1.68,18,18,0,0,1,3-2,39.21,39.21,0,0,1,4.5-2,55.44,55.44,0,0,1,5.83-1.83,30.29,30.29,0,0,1,6.28-1,13.08,13.08,0,0,1,4.12.38A3.75,3.75,0,0,1,85,41.48,2.26,2.26,0,0,1,85.25,43.48ZM58,68.31a5.79,5.79,0,0,1,2.61-2.67,16.5,16.5,0,0,1,4.92-2,8.47,8.47,0,0,1,4.22-.17c1,.31,1.44.9,1.15,1.77a5.69,5.69,0,0,1-2.61,2.73,16.09,16.09,0,0,1-4.84,2,8.72,8.72,0,0,1-4.33.19C58.07,69.81,57.7,69.21,58,68.31Z"/></g></g></svg>