<svg xmlns="http://www.w3.org/2000/svg" viewBox="0 0 90.33 179.44"><defs><style>.cls-1{fill:#231f20;stroke:#231f20;stroke-miterlimit:10;}</style></defs><title>pw</title><g id="Layer_2" data-name="Layer 2"><g id="Layer_1-2" data-name="Layer 1"><path class="cls-1" d="M5.25,42.24C7.37,55.49,9.49,68.75,11.57,81.8c7.64.52,8.23-4.16,8.56-9,1.09-16,2.12-32.11,3.25-48.16a55.35,55.35,0,0,1,1.19-6.45l1.5-.06c.47,4,1.07,7.93,1.39,11.91,1.11,13.78,2,27.58,3.24,41.36.19,2.22-.56,5.59,3.66,5.57S38.8,73.85,39,70.92c1.15-19,2.18-38,3.4-57C42.66,9.45,43.54,5,44.14.53l2.25,0C47,4.78,47.92,9,48.19,13.34,49.39,32.15,50.4,51,51.49,69.8c.06,1-.16,2.35.39,3a40.35,40.35,0,0,0,4.26,4.1c1.2-1.3,3.31-2.51,3.44-3.91C60.94,58.58,62,44.09,63.14,29.62c.31-3.82.89-7.62,1.35-11.44l1.62,0c.41,2.45,1,4.89,1.2,7.35C68.5,42,69.74,58.34,70.64,74.75c.28,5.07,2.77,7,8.3,7.33q3.18-19.8,6.37-39.71h.9a67.53,67.53,0,0,1,1.54,8.39Q89,69.91,89.82,89.1c.06,1.26-.65,3.27-1.62,3.78C65.94,104.63,57.3,125.1,52.56,148c-1.74,8.46-3,17-4.58,25.51A35,35,0,0,1,46,178.91l-1.84,0c-.56-2.13-1.18-4.25-1.67-6.39-3.35-14.64-6.13-29.43-10.17-43.87C28.06,113.33,18,102,4.14,94.16c-2.81-1.6-3.86-3.3-3.6-6.48,1.08-13.62,1.93-27.25,3-40.87A29.22,29.22,0,0,1,4.55,42.2Z"/></g></g></svg>