<svg xmlns="http://www.w3.org/2000/svg" viewBox="0 0 87.25 97.82"><defs><style>.cls-1{fill:#fedb7c;}</style></defs><title>back_1</title><g id="Layer_2" data-name="Layer 2"><g id="Layer_1-2" data-name="Layer 1"><path class="cls-1" d="M50.52,69.44,0,50.26,19.09,0,29.55,23.1c.86-.54,1.65-1.08,2.48-1.55A45.43,45.43,0,0,1,55.9,15.22a26.69,26.69,0,0,1,12.52,3.23c5.84,3.23,10.93,7.31,14.44,13.11a31.28,31.28,0,0,1,4.39,16.17,49,49,0,0,1-1.64,12.69,67.07,67.07,0,0,1-5.12,14A41.74,41.74,0,0,1,63.4,92.66a39.44,39.44,0,0,1-21.59,5.1,6.22,6.22,0,0,1-1.76-.37c.84-.49,1.69-1,2.53-1.47a92.72,92.72,0,0,0,15-10.71A49.91,49.91,0,0,0,68.32,72a44.82,44.82,0,0,0,4-9.42,16.66,16.66,0,0,0-6.53-18.5c-5.79-4.18-12-4.66-18.5-1.9A39.36,39.36,0,0,0,40.45,46c-.35.23-.34.43-.18.77q5,11,10,22.06C50.34,69,50.4,69.18,50.52,69.44Z"/></g></g></svg>